<mxfile host="app.diagrams.net" agent="Mozilla/5.0 (Macintosh; Intel Mac OS X 10_15_7) AppleWebKit/605.1.15 (KHTML, like Gecko) Version/18.4 Safari/605.1.15" version="26.0.16">
  <diagram name="Page-1" id="PksR5d2xNrZkVQ68UQ9A">
    <mxGraphModel dx="1268" dy="885" grid="1" gridSize="10" guides="1" tooltips="1" connect="1" arrows="1" fold="1" page="1" pageScale="1" pageWidth="850" pageHeight="1100" math="0" shadow="0">
      <root>
        <mxCell id="0" />
        <mxCell id="1" parent="0" />
        <mxCell id="Nj9PsK4lVdZLPK7vL6xS-1" style="rounded=0;orthogonalLoop=1;jettySize=auto;html=1;exitX=0.75;exitY=1;exitDx=0;exitDy=0;entryX=0;entryY=0;entryDx=0;entryDy=0;endArrow=none;endFill=0;fontSize=14;" parent="1" source="Nj9PsK4lVdZLPK7vL6xS-3" target="Nj9PsK4lVdZLPK7vL6xS-78" edge="1">
          <mxGeometry relative="1" as="geometry" />
        </mxCell>
        <mxCell id="Nj9PsK4lVdZLPK7vL6xS-2" style="rounded=0;orthogonalLoop=1;jettySize=auto;html=1;exitX=0.5;exitY=1;exitDx=0;exitDy=0;endArrow=none;endFill=0;fontSize=14;" parent="1" source="Nj9PsK4lVdZLPK7vL6xS-3" target="Nj9PsK4lVdZLPK7vL6xS-75" edge="1">
          <mxGeometry relative="1" as="geometry" />
        </mxCell>
        <mxCell id="Nj9PsK4lVdZLPK7vL6xS-3" value="&lt;div&gt;&lt;font&gt;patient&lt;/font&gt;&lt;/div&gt;" style="rounded=0;whiteSpace=wrap;html=1;fontSize=14;" parent="1" vertex="1">
          <mxGeometry x="105.25" y="725" width="90" height="40" as="geometry" />
        </mxCell>
        <mxCell id="Nj9PsK4lVdZLPK7vL6xS-4" style="edgeStyle=orthogonalEdgeStyle;rounded=0;orthogonalLoop=1;jettySize=auto;html=1;exitX=0.5;exitY=1;exitDx=0;exitDy=0;endArrow=none;endFill=0;fontSize=14;" parent="1" source="Nj9PsK4lVdZLPK7vL6xS-5" target="Nj9PsK4lVdZLPK7vL6xS-7" edge="1">
          <mxGeometry relative="1" as="geometry" />
        </mxCell>
        <mxCell id="Nj9PsK4lVdZLPK7vL6xS-5" value="&lt;div&gt;&lt;font&gt;agent&lt;/font&gt;&lt;/div&gt;" style="rounded=0;whiteSpace=wrap;html=1;fontSize=14;" parent="1" vertex="1">
          <mxGeometry x="104.5" y="515" width="90" height="40" as="geometry" />
        </mxCell>
        <mxCell id="Nj9PsK4lVdZLPK7vL6xS-6" style="edgeStyle=orthogonalEdgeStyle;rounded=0;orthogonalLoop=1;jettySize=auto;html=1;exitX=0.5;exitY=1;exitDx=0;exitDy=0;entryX=0.5;entryY=0;entryDx=0;entryDy=0;endArrow=none;endFill=0;fontSize=14;" parent="1" source="Nj9PsK4lVdZLPK7vL6xS-7" target="Nj9PsK4lVdZLPK7vL6xS-3" edge="1">
          <mxGeometry relative="1" as="geometry" />
        </mxCell>
        <mxCell id="Nj9PsK4lVdZLPK7vL6xS-7" value="&lt;font&gt;care&lt;/font&gt;" style="rhombus;whiteSpace=wrap;html=1;fontSize=14;" parent="1" vertex="1">
          <mxGeometry x="110.25" y="605" width="80" height="40" as="geometry" />
        </mxCell>
        <mxCell id="Nj9PsK4lVdZLPK7vL6xS-8" value="&lt;div&gt;&lt;font&gt;equipment&lt;/font&gt;&lt;/div&gt;" style="rounded=0;whiteSpace=wrap;html=1;fontSize=14;" parent="1" vertex="1">
          <mxGeometry x="487.25" y="515" width="90" height="40" as="geometry" />
        </mxCell>
        <mxCell id="Nj9PsK4lVdZLPK7vL6xS-9" style="edgeStyle=orthogonalEdgeStyle;rounded=0;orthogonalLoop=1;jettySize=auto;html=1;exitX=0.5;exitY=0;exitDx=0;exitDy=0;endArrow=none;endFill=0;fontSize=14;" parent="1" source="Nj9PsK4lVdZLPK7vL6xS-10" target="Nj9PsK4lVdZLPK7vL6xS-110" edge="1">
          <mxGeometry relative="1" as="geometry" />
        </mxCell>
        <mxCell id="Nj9PsK4lVdZLPK7vL6xS-10" value="borrowlist" style="rhombus;whiteSpace=wrap;html=1;fontSize=14;" parent="1" vertex="1">
          <mxGeometry x="352.75" y="515" width="97" height="40" as="geometry" />
        </mxCell>
        <mxCell id="Nj9PsK4lVdZLPK7vL6xS-11" value="" style="endArrow=none;html=1;rounded=0;exitX=1;exitY=0.5;exitDx=0;exitDy=0;endFill=0;entryX=0;entryY=0.5;entryDx=0;entryDy=0;fontSize=14;" parent="1" source="Nj9PsK4lVdZLPK7vL6xS-5" target="Nj9PsK4lVdZLPK7vL6xS-10" edge="1">
          <mxGeometry width="50" height="50" relative="1" as="geometry">
            <mxPoint x="569.75" y="545" as="sourcePoint" />
            <mxPoint x="341.75" y="535" as="targetPoint" />
          </mxGeometry>
        </mxCell>
        <mxCell id="Nj9PsK4lVdZLPK7vL6xS-12" value="" style="endArrow=none;html=1;rounded=0;exitX=1;exitY=0.5;exitDx=0;exitDy=0;entryX=0;entryY=0.5;entryDx=0;entryDy=0;fontSize=14;" parent="1" source="Nj9PsK4lVdZLPK7vL6xS-10" target="Nj9PsK4lVdZLPK7vL6xS-8" edge="1">
          <mxGeometry width="50" height="50" relative="1" as="geometry">
            <mxPoint x="499.75" y="545" as="sourcePoint" />
            <mxPoint x="549.75" y="495" as="targetPoint" />
          </mxGeometry>
        </mxCell>
        <mxCell id="Nj9PsK4lVdZLPK7vL6xS-13" value="&lt;font&gt;have&lt;/font&gt;" style="rhombus;whiteSpace=wrap;html=1;fontSize=14;" parent="1" vertex="1">
          <mxGeometry x="620.75" y="515" width="80" height="40" as="geometry" />
        </mxCell>
        <mxCell id="Nj9PsK4lVdZLPK7vL6xS-14" value="&lt;font&gt;Type&lt;/font&gt;" style="rounded=0;whiteSpace=wrap;html=1;fontSize=14;" parent="1" vertex="1">
          <mxGeometry x="720.75" y="515" width="90" height="40" as="geometry" />
        </mxCell>
        <mxCell id="Nj9PsK4lVdZLPK7vL6xS-15" value="" style="endArrow=none;html=1;rounded=0;exitX=1;exitY=0.5;exitDx=0;exitDy=0;entryX=0;entryY=0.5;entryDx=0;entryDy=0;fontSize=14;" parent="1" source="Nj9PsK4lVdZLPK7vL6xS-8" target="Nj9PsK4lVdZLPK7vL6xS-13" edge="1">
          <mxGeometry width="50" height="50" relative="1" as="geometry">
            <mxPoint x="869.75" y="615" as="sourcePoint" />
            <mxPoint x="919.75" y="565" as="targetPoint" />
          </mxGeometry>
        </mxCell>
        <mxCell id="Nj9PsK4lVdZLPK7vL6xS-16" value="&lt;font&gt;Status&lt;/font&gt;" style="rounded=0;whiteSpace=wrap;html=1;fontSize=14;" parent="1" vertex="1">
          <mxGeometry x="638.3000000000002" y="715" width="90" height="40" as="geometry" />
        </mxCell>
        <mxCell id="Nj9PsK4lVdZLPK7vL6xS-17" value="&lt;div&gt;&lt;font&gt;borrowhistory&lt;/font&gt;&lt;/div&gt;" style="rounded=0;whiteSpace=wrap;html=1;fontSize=14;" parent="1" vertex="1">
          <mxGeometry x="405.96" y="960" width="90" height="40" as="geometry" />
        </mxCell>
        <mxCell id="Nj9PsK4lVdZLPK7vL6xS-18" value="" style="endArrow=none;html=1;rounded=0;entryX=0;entryY=0.5;entryDx=0;entryDy=0;exitX=1;exitY=0.5;exitDx=0;exitDy=0;fontSize=14;" parent="1" source="Nj9PsK4lVdZLPK7vL6xS-13" target="Nj9PsK4lVdZLPK7vL6xS-14" edge="1">
          <mxGeometry width="50" height="50" relative="1" as="geometry">
            <mxPoint x="707.75" y="532.5" as="sourcePoint" />
            <mxPoint x="747.75" y="602.5" as="targetPoint" />
          </mxGeometry>
        </mxCell>
        <mxCell id="Nj9PsK4lVdZLPK7vL6xS-19" value="M" style="text;html=1;align=center;verticalAlign=middle;whiteSpace=wrap;rounded=0;fontSize=14;" parent="1" vertex="1">
          <mxGeometry x="149.75" y="665" width="20" height="25" as="geometry" />
        </mxCell>
        <mxCell id="Nj9PsK4lVdZLPK7vL6xS-20" value="1" style="text;html=1;align=center;verticalAlign=middle;whiteSpace=wrap;rounded=0;fontSize=14;" parent="1" vertex="1">
          <mxGeometry x="149.75" y="570" width="20" height="20" as="geometry" />
        </mxCell>
        <mxCell id="Nj9PsK4lVdZLPK7vL6xS-21" value="M" style="text;html=1;align=center;verticalAlign=middle;whiteSpace=wrap;rounded=0;fontSize=14;" parent="1" vertex="1">
          <mxGeometry x="203.75" y="535" width="20" height="20" as="geometry" />
        </mxCell>
        <mxCell id="Nj9PsK4lVdZLPK7vL6xS-22" value="N" style="text;html=1;align=center;verticalAlign=middle;whiteSpace=wrap;rounded=0;fontSize=14;" parent="1" vertex="1">
          <mxGeometry x="454.75" y="535" width="20" height="20" as="geometry" />
        </mxCell>
        <mxCell id="Nj9PsK4lVdZLPK7vL6xS-24" value="M" style="text;html=1;align=center;verticalAlign=middle;whiteSpace=wrap;rounded=0;fontSize=14;" parent="1" vertex="1">
          <mxGeometry x="587.75" y="512.5" width="20" height="20" as="geometry" />
        </mxCell>
        <mxCell id="Nj9PsK4lVdZLPK7vL6xS-25" value="1" style="text;html=1;align=center;verticalAlign=middle;whiteSpace=wrap;rounded=0;fontSize=14;" parent="1" vertex="1">
          <mxGeometry x="697.75" y="512.5" width="20" height="20" as="geometry" />
        </mxCell>
        <mxCell id="Nj9PsK4lVdZLPK7vL6xS-26" value="" style="endArrow=none;html=1;rounded=0;exitX=0.75;exitY=0;exitDx=0;exitDy=0;entryX=0.5;entryY=1;entryDx=0;entryDy=0;fontSize=14;" parent="1" source="Nj9PsK4lVdZLPK7vL6xS-5" target="Nj9PsK4lVdZLPK7vL6xS-48" edge="1">
          <mxGeometry width="50" height="50" relative="1" as="geometry">
            <mxPoint x="286.75" y="555" as="sourcePoint" />
            <mxPoint x="101.75" y="395" as="targetPoint" />
          </mxGeometry>
        </mxCell>
        <mxCell id="Nj9PsK4lVdZLPK7vL6xS-28" value="" style="endArrow=none;html=1;rounded=0;exitX=0.25;exitY=0;exitDx=0;exitDy=0;entryX=0.619;entryY=0.984;entryDx=0;entryDy=0;entryPerimeter=0;fontSize=14;" parent="1" source="Nj9PsK4lVdZLPK7vL6xS-14" target="Nj9PsK4lVdZLPK7vL6xS-67" edge="1">
          <mxGeometry width="50" height="50" relative="1" as="geometry">
            <mxPoint x="609.75" y="512.5" as="sourcePoint" />
            <mxPoint x="734.75" y="442.5" as="targetPoint" />
          </mxGeometry>
        </mxCell>
        <mxCell id="Nj9PsK4lVdZLPK7vL6xS-29" value="" style="endArrow=none;html=1;rounded=0;exitX=0.5;exitY=1;exitDx=0;exitDy=0;entryX=0.5;entryY=0;entryDx=0;entryDy=0;fontSize=14;" parent="1" source="Nj9PsK4lVdZLPK7vL6xS-14" target="Nj9PsK4lVdZLPK7vL6xS-68" edge="1">
          <mxGeometry width="50" height="50" relative="1" as="geometry">
            <mxPoint x="612.75" y="552.5" as="sourcePoint" />
            <mxPoint x="812.75" y="452.5" as="targetPoint" />
          </mxGeometry>
        </mxCell>
        <mxCell id="Nj9PsK4lVdZLPK7vL6xS-30" value="" style="endArrow=none;html=1;rounded=0;exitX=0.25;exitY=0;exitDx=0;exitDy=0;entryX=0.676;entryY=0.967;entryDx=0;entryDy=0;entryPerimeter=0;fontSize=14;" parent="1" source="Nj9PsK4lVdZLPK7vL6xS-16" target="Nj9PsK4lVdZLPK7vL6xS-71" edge="1">
          <mxGeometry width="50" height="50" relative="1" as="geometry">
            <mxPoint x="502.86" y="545" as="sourcePoint" />
            <mxPoint x="637.8600000000001" y="615" as="targetPoint" />
          </mxGeometry>
        </mxCell>
        <mxCell id="Nj9PsK4lVdZLPK7vL6xS-37" value="" style="endArrow=none;html=1;rounded=0;entryX=0.309;entryY=0.944;entryDx=0;entryDy=0;entryPerimeter=0;exitX=0.75;exitY=0;exitDx=0;exitDy=0;fontSize=14;" parent="1" source="Nj9PsK4lVdZLPK7vL6xS-16" target="Nj9PsK4lVdZLPK7vL6xS-72" edge="1">
          <mxGeometry width="50" height="50" relative="1" as="geometry">
            <mxPoint x="712.8600000000001" y="655" as="sourcePoint" />
            <mxPoint x="727.8600000000001" y="615" as="targetPoint" />
          </mxGeometry>
        </mxCell>
        <mxCell id="Nj9PsK4lVdZLPK7vL6xS-40" value="&lt;div&gt;&lt;font&gt;Admin&lt;/font&gt;&lt;/div&gt;" style="rounded=0;whiteSpace=wrap;html=1;fontSize=14;" parent="1" vertex="1">
          <mxGeometry x="662.76" y="960" width="90" height="40" as="geometry" />
        </mxCell>
        <mxCell id="Nj9PsK4lVdZLPK7vL6xS-43" value="&lt;font&gt;has&lt;/font&gt;" style="rhombus;whiteSpace=wrap;html=1;fontSize=14;" parent="1" vertex="1">
          <mxGeometry x="492.25" y="635" width="80" height="40" as="geometry" />
        </mxCell>
        <mxCell id="Nj9PsK4lVdZLPK7vL6xS-44" value="" style="endArrow=none;html=1;rounded=0;exitX=0.5;exitY=1;exitDx=0;exitDy=0;entryX=0.5;entryY=0;entryDx=0;entryDy=0;fontSize=14;" parent="1" source="Nj9PsK4lVdZLPK7vL6xS-8" edge="1">
          <mxGeometry width="50" height="50" relative="1" as="geometry">
            <mxPoint x="449.75" y="655" as="sourcePoint" />
            <mxPoint x="530.75" y="635" as="targetPoint" />
          </mxGeometry>
        </mxCell>
        <mxCell id="Nj9PsK4lVdZLPK7vL6xS-45" value="" style="endArrow=none;html=1;rounded=0;exitX=0.5;exitY=1;exitDx=0;exitDy=0;entryX=0;entryY=0.5;entryDx=0;entryDy=0;edgeStyle=orthogonalEdgeStyle;fontSize=14;" parent="1" source="Nj9PsK4lVdZLPK7vL6xS-43" target="Nj9PsK4lVdZLPK7vL6xS-16" edge="1">
          <mxGeometry width="50" height="50" relative="1" as="geometry">
            <mxPoint x="486.75" y="645" as="sourcePoint" />
            <mxPoint x="536.75" y="595" as="targetPoint" />
          </mxGeometry>
        </mxCell>
        <mxCell id="Nj9PsK4lVdZLPK7vL6xS-46" value="M" style="text;html=1;align=center;verticalAlign=middle;whiteSpace=wrap;rounded=0;fontSize=14;" parent="1" vertex="1">
          <mxGeometry x="533.75" y="605" width="20" height="20" as="geometry" />
        </mxCell>
        <mxCell id="Nj9PsK4lVdZLPK7vL6xS-47" value="1" style="text;html=1;align=center;verticalAlign=middle;whiteSpace=wrap;rounded=0;fontSize=14;" parent="1" vertex="1">
          <mxGeometry x="533.75" y="690" width="20" height="20" as="geometry" />
        </mxCell>
        <mxCell id="Nj9PsK4lVdZLPK7vL6xS-48" value="&lt;font&gt;age_username&lt;/font&gt;" style="ellipse;whiteSpace=wrap;html=1;fontSize=14;" parent="1" vertex="1">
          <mxGeometry x="180.32" y="440" width="104" height="35" as="geometry" />
        </mxCell>
        <mxCell id="Nj9PsK4lVdZLPK7vL6xS-49" style="rounded=0;orthogonalLoop=1;jettySize=auto;html=1;exitX=0.5;exitY=0;exitDx=0;exitDy=0;entryX=0.25;entryY=1;entryDx=0;entryDy=0;endArrow=none;endFill=0;fontSize=14;" parent="1" source="Nj9PsK4lVdZLPK7vL6xS-50" target="Nj9PsK4lVdZLPK7vL6xS-5" edge="1">
          <mxGeometry relative="1" as="geometry" />
        </mxCell>
        <mxCell id="Nj9PsK4lVdZLPK7vL6xS-50" value="&lt;font&gt;&lt;u&gt;age_id&lt;/u&gt;&lt;/font&gt;" style="ellipse;whiteSpace=wrap;html=1;fontSize=14;" parent="1" vertex="1">
          <mxGeometry x="45.25" y="575" width="60" height="30" as="geometry" />
        </mxCell>
        <mxCell id="Nj9PsK4lVdZLPK7vL6xS-55" style="rounded=0;orthogonalLoop=1;jettySize=auto;html=1;exitX=0.5;exitY=1;exitDx=0;exitDy=0;entryX=0.25;entryY=0;entryDx=0;entryDy=0;endArrow=none;endFill=0;fontSize=14;" parent="1" source="Nj9PsK4lVdZLPK7vL6xS-56" target="Nj9PsK4lVdZLPK7vL6xS-5" edge="1">
          <mxGeometry relative="1" as="geometry" />
        </mxCell>
        <mxCell id="Nj9PsK4lVdZLPK7vL6xS-56" value="&lt;font&gt;age_password&lt;/font&gt;" style="ellipse;whiteSpace=wrap;html=1;fontSize=14;" parent="1" vertex="1">
          <mxGeometry x="40" y="440" width="104.38" height="40" as="geometry" />
        </mxCell>
        <mxCell id="Nj9PsK4lVdZLPK7vL6xS-64" value="&lt;font&gt;equ_name&lt;/font&gt;" style="ellipse;whiteSpace=wrap;html=1;fontSize=14;" parent="1" vertex="1">
          <mxGeometry x="450" y="465" width="80" height="30" as="geometry" />
        </mxCell>
        <mxCell id="Nj9PsK4lVdZLPK7vL6xS-65" value="" style="endArrow=none;html=1;rounded=0;exitX=0.25;exitY=0;exitDx=0;exitDy=0;entryX=0.5;entryY=1;entryDx=0;entryDy=0;fontSize=14;" parent="1" source="Nj9PsK4lVdZLPK7vL6xS-8" target="Nj9PsK4lVdZLPK7vL6xS-64" edge="1">
          <mxGeometry width="50" height="50" relative="1" as="geometry">
            <mxPoint x="526.75" y="475" as="sourcePoint" />
            <mxPoint x="510.75" y="455" as="targetPoint" />
          </mxGeometry>
        </mxCell>
        <mxCell id="Nj9PsK4lVdZLPK7vL6xS-67" value="&lt;font&gt;&lt;u&gt;typ_id&lt;/u&gt;&lt;/font&gt;" style="ellipse;whiteSpace=wrap;html=1;fontSize=14;" parent="1" vertex="1">
          <mxGeometry x="706.75" y="475" width="55.75" height="30" as="geometry" />
        </mxCell>
        <mxCell id="Nj9PsK4lVdZLPK7vL6xS-68" value="&lt;font&gt;typ_comment&lt;/font&gt;" style="ellipse;whiteSpace=wrap;html=1;fontSize=14;" parent="1" vertex="1">
          <mxGeometry x="716.5" y="580" width="98.5" height="30" as="geometry" />
        </mxCell>
        <mxCell id="Nj9PsK4lVdZLPK7vL6xS-69" value="&lt;font&gt;typ_name&lt;/font&gt;" style="ellipse;whiteSpace=wrap;html=1;fontSize=14;" parent="1" vertex="1">
          <mxGeometry x="753.75" y="445" width="72" height="30" as="geometry" />
        </mxCell>
        <mxCell id="Nj9PsK4lVdZLPK7vL6xS-70" value="" style="endArrow=none;html=1;rounded=0;exitX=0.5;exitY=0;exitDx=0;exitDy=0;entryX=0.5;entryY=1;entryDx=0;entryDy=0;fontSize=14;" parent="1" source="Nj9PsK4lVdZLPK7vL6xS-14" target="Nj9PsK4lVdZLPK7vL6xS-69" edge="1">
          <mxGeometry width="50" height="50" relative="1" as="geometry">
            <mxPoint x="803.75" y="472.5" as="sourcePoint" />
            <mxPoint x="822.75" y="432.5" as="targetPoint" />
          </mxGeometry>
        </mxCell>
        <mxCell id="Nj9PsK4lVdZLPK7vL6xS-71" value="&lt;font&gt;&lt;u&gt;sta_id&lt;/u&gt;&lt;/font&gt;" style="ellipse;whiteSpace=wrap;html=1;fontSize=14;" parent="1" vertex="1">
          <mxGeometry x="607.86" y="665" width="52" height="30" as="geometry" />
        </mxCell>
        <mxCell id="Nj9PsK4lVdZLPK7vL6xS-72" value="&lt;font&gt;sta_comment&lt;/font&gt;" style="ellipse;whiteSpace=wrap;html=1;fontSize=14;" parent="1" vertex="1">
          <mxGeometry x="701.64" y="665" width="98.36" height="30" as="geometry" />
        </mxCell>
        <mxCell id="Nj9PsK4lVdZLPK7vL6xS-73" value="&lt;font&gt;sta_name&lt;/font&gt;" style="ellipse;whiteSpace=wrap;html=1;fontSize=14;" parent="1" vertex="1">
          <mxGeometry x="647.3000000000002" y="635" width="72" height="30" as="geometry" />
        </mxCell>
        <mxCell id="Nj9PsK4lVdZLPK7vL6xS-74" value="" style="endArrow=none;html=1;rounded=0;entryX=0.5;entryY=1;entryDx=0;entryDy=0;exitX=0.5;exitY=0;exitDx=0;exitDy=0;fontSize=14;" parent="1" source="Nj9PsK4lVdZLPK7vL6xS-16" target="Nj9PsK4lVdZLPK7vL6xS-73" edge="1">
          <mxGeometry width="50" height="50" relative="1" as="geometry">
            <mxPoint x="682.8600000000001" y="655" as="sourcePoint" />
            <mxPoint x="728.8600000000001" y="615" as="targetPoint" />
          </mxGeometry>
        </mxCell>
        <mxCell id="Nj9PsK4lVdZLPK7vL6xS-75" value="&lt;font&gt;pat_numberhn&lt;/font&gt;" style="ellipse;whiteSpace=wrap;html=1;fontSize=14;" parent="1" vertex="1">
          <mxGeometry x="50" y="795" width="111.75" height="35" as="geometry" />
        </mxCell>
        <mxCell id="Nj9PsK4lVdZLPK7vL6xS-76" style="rounded=0;orthogonalLoop=1;jettySize=auto;html=1;exitX=0;exitY=1;exitDx=0;exitDy=0;entryX=0.75;entryY=0;entryDx=0;entryDy=0;endArrow=none;endFill=0;fontSize=14;" parent="1" source="Nj9PsK4lVdZLPK7vL6xS-77" target="Nj9PsK4lVdZLPK7vL6xS-3" edge="1">
          <mxGeometry relative="1" as="geometry" />
        </mxCell>
        <mxCell id="Nj9PsK4lVdZLPK7vL6xS-77" value="&lt;font&gt;&lt;u&gt;pat_id&lt;/u&gt;&lt;/font&gt;" style="ellipse;whiteSpace=wrap;html=1;fontSize=14;" parent="1" vertex="1">
          <mxGeometry x="203.75" y="670" width="66.25" height="40" as="geometry" />
        </mxCell>
        <mxCell id="Nj9PsK4lVdZLPK7vL6xS-78" value="&lt;font&gt;pat_phone&lt;/font&gt;" style="ellipse;whiteSpace=wrap;html=1;fontSize=14;" parent="1" vertex="1">
          <mxGeometry x="190" y="795" width="84.63" height="35" as="geometry" />
        </mxCell>
        <mxCell id="Nj9PsK4lVdZLPK7vL6xS-79" value="&lt;font&gt;bor_datepickup&lt;/font&gt;" style="ellipse;whiteSpace=wrap;html=1;fontSize=14;" parent="1" vertex="1">
          <mxGeometry x="417.75" y="570" width="101" height="45" as="geometry" />
        </mxCell>
        <mxCell id="Nj9PsK4lVdZLPK7vL6xS-80" value="" style="endArrow=none;html=1;rounded=0;exitX=0;exitY=0;exitDx=0;exitDy=0;entryX=1;entryY=1;entryDx=0;entryDy=0;fontSize=14;" parent="1" source="Nj9PsK4lVdZLPK7vL6xS-79" target="Nj9PsK4lVdZLPK7vL6xS-10" edge="1">
          <mxGeometry width="50" height="50" relative="1" as="geometry">
            <mxPoint x="415.75" y="495" as="sourcePoint" />
            <mxPoint x="399.75" y="522" as="targetPoint" />
          </mxGeometry>
        </mxCell>
        <mxCell id="Nj9PsK4lVdZLPK7vL6xS-81" value="&lt;font&gt;&lt;u&gt;adm_auto&lt;/u&gt;&lt;/font&gt;" style="ellipse;whiteSpace=wrap;html=1;fontSize=14;" parent="1" vertex="1">
          <mxGeometry x="590" y="910" width="85.2" height="30" as="geometry" />
        </mxCell>
        <mxCell id="Nj9PsK4lVdZLPK7vL6xS-82" value="&lt;font&gt;adm_password&lt;/font&gt;" style="ellipse;whiteSpace=wrap;html=1;fontSize=14;" parent="1" vertex="1">
          <mxGeometry x="714.75" y="900" width="103" height="40" as="geometry" />
        </mxCell>
        <mxCell id="Nj9PsK4lVdZLPK7vL6xS-83" value="&lt;font&gt;adm_username&lt;/font&gt;" style="ellipse;whiteSpace=wrap;html=1;fontSize=14;" parent="1" vertex="1">
          <mxGeometry x="636.4" y="860" width="123.6" height="40" as="geometry" />
        </mxCell>
        <mxCell id="Nj9PsK4lVdZLPK7vL6xS-84" value="" style="endArrow=none;html=1;rounded=0;exitX=0.25;exitY=0;exitDx=0;exitDy=0;entryX=0.681;entryY=0.976;entryDx=0;entryDy=0;entryPerimeter=0;fontSize=14;" parent="1" source="Nj9PsK4lVdZLPK7vL6xS-40" target="Nj9PsK4lVdZLPK7vL6xS-81" edge="1">
          <mxGeometry width="50" height="50" relative="1" as="geometry">
            <mxPoint x="511" y="840" as="sourcePoint" />
            <mxPoint x="561" y="790" as="targetPoint" />
          </mxGeometry>
        </mxCell>
        <mxCell id="Nj9PsK4lVdZLPK7vL6xS-85" value="" style="endArrow=none;html=1;rounded=0;exitX=0.5;exitY=0;exitDx=0;exitDy=0;entryX=0.5;entryY=1;entryDx=0;entryDy=0;fontSize=14;" parent="1" source="Nj9PsK4lVdZLPK7vL6xS-40" target="Nj9PsK4lVdZLPK7vL6xS-83" edge="1">
          <mxGeometry width="50" height="50" relative="1" as="geometry">
            <mxPoint x="511" y="840" as="sourcePoint" />
            <mxPoint x="561" y="790" as="targetPoint" />
          </mxGeometry>
        </mxCell>
        <mxCell id="Nj9PsK4lVdZLPK7vL6xS-86" value="" style="endArrow=none;html=1;rounded=0;exitX=0.75;exitY=0;exitDx=0;exitDy=0;entryX=0.306;entryY=0.969;entryDx=0;entryDy=0;entryPerimeter=0;fontSize=14;" parent="1" source="Nj9PsK4lVdZLPK7vL6xS-40" target="Nj9PsK4lVdZLPK7vL6xS-82" edge="1">
          <mxGeometry width="50" height="50" relative="1" as="geometry">
            <mxPoint x="511" y="840" as="sourcePoint" />
            <mxPoint x="561" y="790" as="targetPoint" />
          </mxGeometry>
        </mxCell>
        <mxCell id="Nj9PsK4lVdZLPK7vL6xS-93" value="&lt;div&gt;&lt;font&gt;staff&lt;/font&gt;&lt;/div&gt;" style="rounded=0;whiteSpace=wrap;html=1;fontSize=14;" parent="1" vertex="1">
          <mxGeometry x="359.75" y="625" width="90" height="40" as="geometry" />
        </mxCell>
        <mxCell id="Nj9PsK4lVdZLPK7vL6xS-94" value="" style="endArrow=none;html=1;rounded=0;exitX=0.5;exitY=0;exitDx=0;exitDy=0;entryX=0.5;entryY=1;entryDx=0;entryDy=0;fontSize=14;" parent="1" target="Nj9PsK4lVdZLPK7vL6xS-10" edge="1">
          <mxGeometry width="50" height="50" relative="1" as="geometry">
            <mxPoint x="401" y="625" as="sourcePoint" />
            <mxPoint x="422.75" y="560" as="targetPoint" />
          </mxGeometry>
        </mxCell>
        <mxCell id="Nj9PsK4lVdZLPK7vL6xS-95" value="&lt;font&gt;hospital&lt;/font&gt;" style="rounded=0;whiteSpace=wrap;html=1;fontSize=14;fontColor=#000000;fillColor=light-dark(#FFFFFF,var(--ge-dark-color, #121212));" parent="1" vertex="1">
          <mxGeometry x="641.8600000000001" y="313" width="90" height="40" as="geometry" />
        </mxCell>
        <mxCell id="Nj9PsK4lVdZLPK7vL6xS-96" value="" style="endArrow=none;html=1;rounded=0;entryX=0.5;entryY=1;entryDx=0;entryDy=0;fontSize=14;exitX=0.5;exitY=0;exitDx=0;exitDy=0;fillColor=light-dark(#FFFFFF,var(--ge-dark-color, #121212));fontColor=#000000;" parent="1" source="Nj9PsK4lVdZLPK7vL6xS-102" target="Nj9PsK4lVdZLPK7vL6xS-95" edge="1">
          <mxGeometry width="50" height="50" relative="1" as="geometry">
            <mxPoint x="652.8800000000001" y="330" as="sourcePoint" />
            <mxPoint x="655.8800000000001" y="307.5" as="targetPoint" />
          </mxGeometry>
        </mxCell>
        <mxCell id="Nj9PsK4lVdZLPK7vL6xS-98" value="&lt;span&gt;&lt;u&gt;hos_id&lt;/u&gt;&lt;/span&gt;" style="ellipse;whiteSpace=wrap;html=1;fontSize=14;fontColor=#000000;fillColor=light-dark(#FFFFFF,var(--ge-dark-color, #121212));" parent="1" vertex="1">
          <mxGeometry x="667.76" y="258" width="56" height="30" as="geometry" />
        </mxCell>
        <mxCell id="Nj9PsK4lVdZLPK7vL6xS-99" value="&lt;font&gt;hos_name&lt;/font&gt;" style="ellipse;whiteSpace=wrap;html=1;fontSize=14;fontColor=#000000;fillColor=light-dark(#FFFFFF,var(--ge-dark-color, #121212));" parent="1" vertex="1">
          <mxGeometry x="735.75" y="258" width="85" height="30" as="geometry" />
        </mxCell>
        <mxCell id="Nj9PsK4lVdZLPK7vL6xS-100" value="" style="endArrow=none;html=1;rounded=0;exitX=0.5;exitY=0;exitDx=0;exitDy=0;entryX=0.5;entryY=1;entryDx=0;entryDy=0;fontSize=14;fontColor=#000000;fillColor=light-dark(#FFFFFF,var(--ge-dark-color, #121212));" parent="1" source="Nj9PsK4lVdZLPK7vL6xS-95" target="Nj9PsK4lVdZLPK7vL6xS-98" edge="1">
          <mxGeometry width="50" height="50" relative="1" as="geometry">
            <mxPoint x="583.88" y="278" as="sourcePoint" />
            <mxPoint x="596.8800000000001" y="256" as="targetPoint" />
          </mxGeometry>
        </mxCell>
        <mxCell id="Nj9PsK4lVdZLPK7vL6xS-101" value="" style="endArrow=none;html=1;rounded=0;exitX=0.75;exitY=0;exitDx=0;exitDy=0;entryX=0;entryY=1;entryDx=0;entryDy=0;fontSize=14;fontColor=#000000;fillColor=light-dark(#FFFFFF,var(--ge-dark-color, #121212));" parent="1" source="Nj9PsK4lVdZLPK7vL6xS-95" target="Nj9PsK4lVdZLPK7vL6xS-99" edge="1">
          <mxGeometry width="50" height="50" relative="1" as="geometry">
            <mxPoint x="593.88" y="288" as="sourcePoint" />
            <mxPoint x="606.8800000000001" y="266" as="targetPoint" />
          </mxGeometry>
        </mxCell>
        <mxCell id="Nj9PsK4lVdZLPK7vL6xS-102" value="&lt;font&gt;belong to&lt;/font&gt;" style="rhombus;whiteSpace=wrap;html=1;fontSize=14;fontColor=#000000;fillColor=light-dark(#FFFFFF,var(--ge-dark-color, #121212));" parent="1" vertex="1">
          <mxGeometry x="600.2" y="407" width="85.56" height="40" as="geometry" />
        </mxCell>
        <mxCell id="Nj9PsK4lVdZLPK7vL6xS-103" value="" style="endArrow=none;html=1;rounded=0;entryX=0.5;entryY=1;entryDx=0;entryDy=0;fontSize=14;exitX=1;exitY=0;exitDx=0;exitDy=0;" parent="1" source="Nj9PsK4lVdZLPK7vL6xS-8" target="Nj9PsK4lVdZLPK7vL6xS-102" edge="1">
          <mxGeometry width="50" height="50" relative="1" as="geometry">
            <mxPoint x="594.88" y="410" as="sourcePoint" />
            <mxPoint x="700.8800000000001" y="310" as="targetPoint" />
          </mxGeometry>
        </mxCell>
        <mxCell id="Nj9PsK4lVdZLPK7vL6xS-104" style="rounded=0;orthogonalLoop=1;jettySize=auto;html=1;exitX=0.5;exitY=0;exitDx=0;exitDy=0;entryX=0;entryY=1;entryDx=0;entryDy=0;endArrow=none;endFill=0;fontSize=14;" parent="1" source="Nj9PsK4lVdZLPK7vL6xS-105" target="Nj9PsK4lVdZLPK7vL6xS-10" edge="1">
          <mxGeometry relative="1" as="geometry" />
        </mxCell>
        <mxCell id="Nj9PsK4lVdZLPK7vL6xS-105" value="bor_datesend" style="ellipse;whiteSpace=wrap;html=1;fontSize=14;" parent="1" vertex="1">
          <mxGeometry x="266" y="557.5" width="104.25" height="45" as="geometry" />
        </mxCell>
        <mxCell id="Nj9PsK4lVdZLPK7vL6xS-106" style="rounded=0;orthogonalLoop=1;jettySize=auto;html=1;exitX=1;exitY=1;exitDx=0;exitDy=0;entryX=0;entryY=0;entryDx=0;entryDy=0;endArrow=none;endFill=0;fontSize=14;" parent="1" source="Nj9PsK4lVdZLPK7vL6xS-107" target="Nj9PsK4lVdZLPK7vL6xS-10" edge="1">
          <mxGeometry relative="1" as="geometry" />
        </mxCell>
        <mxCell id="Nj9PsK4lVdZLPK7vL6xS-107" value="&lt;font&gt;bor_dateapproval&lt;/font&gt;" style="ellipse;whiteSpace=wrap;html=1;fontSize=14;" parent="1" vertex="1">
          <mxGeometry x="247.75" y="482.5" width="122.5" height="37.5" as="geometry" />
        </mxCell>
        <mxCell id="Nj9PsK4lVdZLPK7vL6xS-108" value="1" style="text;html=1;align=center;verticalAlign=middle;whiteSpace=wrap;rounded=0;fontSize=14;fontColor=#000000;fillColor=light-dark(#FFFFFF,var(--ge-dark-color, #121212));" parent="1" vertex="1">
          <mxGeometry x="647.3000000000002" y="358" width="20" height="20" as="geometry" />
        </mxCell>
        <mxCell id="Nj9PsK4lVdZLPK7vL6xS-109" value="M" style="text;html=1;align=center;verticalAlign=middle;whiteSpace=wrap;rounded=0;fontSize=14;fontColor=#000000;fillColor=light-dark(#FFFFFF,var(--ge-dark-color, #121212));" parent="1" vertex="1">
          <mxGeometry x="638.3" y="462.5" width="20" height="20" as="geometry" />
        </mxCell>
        <mxCell id="Nj9PsK4lVdZLPK7vL6xS-110" value="&lt;font&gt;volunteer&lt;/font&gt;" style="rounded=0;whiteSpace=wrap;html=1;fontSize=14;" parent="1" vertex="1">
          <mxGeometry x="352.25" y="420" width="98" height="40" as="geometry" />
        </mxCell>
        <mxCell id="Nj9PsK4lVdZLPK7vL6xS-111" style="rounded=0;orthogonalLoop=1;jettySize=auto;html=1;exitX=0;exitY=0;exitDx=0;exitDy=0;entryX=0.75;entryY=1;entryDx=0;entryDy=0;endArrow=none;endFill=0;fillColor=light-dark(#FFFFFF,var(--ge-dark-color, #121212));fontColor=#000000;fontSize=14;" parent="1" source="Nj9PsK4lVdZLPK7vL6xS-112" target="Nj9PsK4lVdZLPK7vL6xS-95" edge="1">
          <mxGeometry relative="1" as="geometry" />
        </mxCell>
        <mxCell id="Nj9PsK4lVdZLPK7vL6xS-112" value="&lt;font&gt;hos_subdistrict&lt;/font&gt;" style="ellipse;whiteSpace=wrap;html=1;fontSize=14;fontColor=#000000;fillColor=light-dark(#FFFFFF,var(--ge-dark-color, #121212));" parent="1" vertex="1">
          <mxGeometry x="700" y="378" width="120.75" height="32" as="geometry" />
        </mxCell>
        <mxCell id="Nj9PsK4lVdZLPK7vL6xS-113" style="rounded=0;orthogonalLoop=1;jettySize=auto;html=1;exitX=1;exitY=1;exitDx=0;exitDy=0;entryX=0;entryY=0;entryDx=0;entryDy=0;endArrow=none;endFill=0;fontSize=14;" parent="1" source="Nj9PsK4lVdZLPK7vL6xS-114" target="Nj9PsK4lVdZLPK7vL6xS-110" edge="1">
          <mxGeometry relative="1" as="geometry" />
        </mxCell>
        <mxCell id="Nj9PsK4lVdZLPK7vL6xS-114" value="&lt;u&gt;vol_id&lt;/u&gt;" style="ellipse;whiteSpace=wrap;html=1;fontSize=14;" parent="1" vertex="1">
          <mxGeometry x="270" y="385" width="69.57" height="35" as="geometry" />
        </mxCell>
        <mxCell id="Nj9PsK4lVdZLPK7vL6xS-115" style="rounded=0;orthogonalLoop=1;jettySize=auto;html=1;exitX=0.5;exitY=1;exitDx=0;exitDy=0;entryX=0.25;entryY=0;entryDx=0;entryDy=0;endArrow=none;endFill=0;fontSize=14;" parent="1" source="Nj9PsK4lVdZLPK7vL6xS-116" target="Nj9PsK4lVdZLPK7vL6xS-110" edge="1">
          <mxGeometry relative="1" as="geometry" />
        </mxCell>
        <mxCell id="Nj9PsK4lVdZLPK7vL6xS-116" value="vol_username" style="ellipse;whiteSpace=wrap;html=1;fontSize=14;" parent="1" vertex="1">
          <mxGeometry x="300" y="340" width="104.88" height="35" as="geometry" />
        </mxCell>
        <mxCell id="Nj9PsK4lVdZLPK7vL6xS-117" style="rounded=0;orthogonalLoop=1;jettySize=auto;html=1;exitX=0.5;exitY=1;exitDx=0;exitDy=0;entryX=0.5;entryY=0;entryDx=0;entryDy=0;endArrow=none;endFill=0;fontSize=14;" parent="1" source="Nj9PsK4lVdZLPK7vL6xS-118" target="Nj9PsK4lVdZLPK7vL6xS-110" edge="1">
          <mxGeometry relative="1" as="geometry" />
        </mxCell>
        <mxCell id="Nj9PsK4lVdZLPK7vL6xS-118" value="vol_password" style="ellipse;whiteSpace=wrap;html=1;fontSize=14;" parent="1" vertex="1">
          <mxGeometry x="416.88" y="340" width="113.12" height="35" as="geometry" />
        </mxCell>
        <mxCell id="Nj9PsK4lVdZLPK7vL6xS-119" value="&lt;div&gt;&lt;font&gt;passwordregis&lt;/font&gt;&lt;/div&gt;" style="rounded=0;whiteSpace=wrap;html=1;fontSize=14;" parent="1" vertex="1">
          <mxGeometry x="123.81999999999994" y="960" width="112" height="40" as="geometry" />
        </mxCell>
        <mxCell id="Nj9PsK4lVdZLPK7vL6xS-120" style="rounded=0;orthogonalLoop=1;jettySize=auto;html=1;exitX=0.5;exitY=1;exitDx=0;exitDy=0;entryX=0.5;entryY=0;entryDx=0;entryDy=0;endArrow=none;endFill=0;fontSize=14;" parent="1" source="Nj9PsK4lVdZLPK7vL6xS-121" target="Nj9PsK4lVdZLPK7vL6xS-119" edge="1">
          <mxGeometry relative="1" as="geometry" />
        </mxCell>
        <mxCell id="Nj9PsK4lVdZLPK7vL6xS-121" value="&lt;font&gt;pass_staff&lt;/font&gt;" style="ellipse;whiteSpace=wrap;html=1;fontSize=14;" parent="1" vertex="1">
          <mxGeometry x="120" y="870" width="83.75" height="30" as="geometry" />
        </mxCell>
        <mxCell id="Nj9PsK4lVdZLPK7vL6xS-122" style="rounded=0;orthogonalLoop=1;jettySize=auto;html=1;exitX=0.5;exitY=1;exitDx=0;exitDy=0;entryX=0.75;entryY=0;entryDx=0;entryDy=0;endArrow=none;endFill=0;fontSize=14;" parent="1" source="Nj9PsK4lVdZLPK7vL6xS-123" target="Nj9PsK4lVdZLPK7vL6xS-119" edge="1">
          <mxGeometry relative="1" as="geometry" />
        </mxCell>
        <mxCell id="Nj9PsK4lVdZLPK7vL6xS-123" value="&lt;font&gt;pass_volunteer&lt;/font&gt;" style="ellipse;whiteSpace=wrap;html=1;fontSize=14;" parent="1" vertex="1">
          <mxGeometry x="191.01" y="900" width="108.99" height="40" as="geometry" />
        </mxCell>
        <mxCell id="Nj9PsK4lVdZLPK7vL6xS-124" style="rounded=0;orthogonalLoop=1;jettySize=auto;html=1;exitX=1;exitY=1;exitDx=0;exitDy=0;entryX=0.25;entryY=0;entryDx=0;entryDy=0;endArrow=none;endFill=0;fontSize=14;" parent="1" source="Nj9PsK4lVdZLPK7vL6xS-125" target="Nj9PsK4lVdZLPK7vL6xS-119" edge="1">
          <mxGeometry relative="1" as="geometry" />
        </mxCell>
        <mxCell id="Nj9PsK4lVdZLPK7vL6xS-125" value="&lt;font&gt;&lt;u&gt;pass_auto&lt;/u&gt;&lt;/font&gt;" style="ellipse;whiteSpace=wrap;html=1;fontSize=14;" parent="1" vertex="1">
          <mxGeometry x="50" y="900" width="89.13" height="40" as="geometry" />
        </mxCell>
        <mxCell id="Nj9PsK4lVdZLPK7vL6xS-126" value="&lt;font&gt;typ_id&lt;/font&gt;" style="ellipse;whiteSpace=wrap;html=1;fontSize=14;" parent="1" vertex="1">
          <mxGeometry x="469.08" y="900" width="101.38" height="30" as="geometry" />
        </mxCell>
        <mxCell id="Nj9PsK4lVdZLPK7vL6xS-127" value="&lt;font&gt;equ_id&lt;/font&gt;" style="ellipse;whiteSpace=wrap;html=1;fontSize=14;" parent="1" vertex="1">
          <mxGeometry x="405.59" y="870" width="79.38" height="30" as="geometry" />
        </mxCell>
        <mxCell id="Nj9PsK4lVdZLPK7vL6xS-128" value="&lt;font&gt;&lt;u&gt;borl_number&lt;/u&gt;&lt;/font&gt;" style="ellipse;whiteSpace=wrap;html=1;fontSize=14;" parent="1" vertex="1">
          <mxGeometry x="330" y="900" width="102.33" height="40" as="geometry" />
        </mxCell>
        <mxCell id="iGXHqbTBTP0j_DjDAk4k-3" style="rounded=0;orthogonalLoop=1;jettySize=auto;html=1;exitX=0.5;exitY=1;exitDx=0;exitDy=0;entryX=0.5;entryY=0;entryDx=0;entryDy=0;endArrow=none;endFill=0;fontSize=14;" parent="1" source="Nj9PsK4lVdZLPK7vL6xS-127" edge="1">
          <mxGeometry relative="1" as="geometry">
            <mxPoint x="444.32" y="910" as="sourcePoint" />
            <mxPoint x="457.32" y="960" as="targetPoint" />
          </mxGeometry>
        </mxCell>
        <mxCell id="iGXHqbTBTP0j_DjDAk4k-4" style="rounded=0;orthogonalLoop=1;jettySize=auto;html=1;exitX=0.5;exitY=1;exitDx=0;exitDy=0;entryX=0.25;entryY=0;entryDx=0;entryDy=0;endArrow=none;endFill=0;fontSize=14;" parent="1" source="Nj9PsK4lVdZLPK7vL6xS-128" target="Nj9PsK4lVdZLPK7vL6xS-17" edge="1">
          <mxGeometry relative="1" as="geometry">
            <mxPoint x="455.57" y="910" as="sourcePoint" />
            <mxPoint x="467.32" y="970" as="targetPoint" />
          </mxGeometry>
        </mxCell>
        <mxCell id="iGXHqbTBTP0j_DjDAk4k-5" style="rounded=0;orthogonalLoop=1;jettySize=auto;html=1;exitX=0.5;exitY=1;exitDx=0;exitDy=0;entryX=0.826;entryY=0.014;entryDx=0;entryDy=0;endArrow=none;endFill=0;entryPerimeter=0;fontSize=14;" parent="1" source="Nj9PsK4lVdZLPK7vL6xS-126" target="Nj9PsK4lVdZLPK7vL6xS-17" edge="1">
          <mxGeometry relative="1" as="geometry">
            <mxPoint x="465.57" y="920" as="sourcePoint" />
            <mxPoint x="477.32" y="980" as="targetPoint" />
          </mxGeometry>
        </mxCell>
        <mxCell id="iGXHqbTBTP0j_DjDAk4k-6" value="&lt;font&gt;equ_id&lt;/font&gt;" style="ellipse;whiteSpace=wrap;html=1;fontSize=14;" parent="1" vertex="1">
          <mxGeometry x="537.86" y="445" width="70" height="30" as="geometry" />
        </mxCell>
        <mxCell id="iGXHqbTBTP0j_DjDAk4k-7" value="" style="endArrow=none;html=1;rounded=0;entryX=0.438;entryY=0.967;entryDx=0;entryDy=0;fontSize=14;entryPerimeter=0;exitX=0.841;exitY=-0.017;exitDx=0;exitDy=0;exitPerimeter=0;" parent="1" target="iGXHqbTBTP0j_DjDAk4k-6" edge="1" source="Nj9PsK4lVdZLPK7vL6xS-8">
          <mxGeometry width="50" height="50" relative="1" as="geometry">
            <mxPoint x="550" y="510" as="sourcePoint" />
            <mxPoint x="503" y="485" as="targetPoint" />
          </mxGeometry>
        </mxCell>
        <mxCell id="iGXHqbTBTP0j_DjDAk4k-8" value="&lt;u&gt;stf_id&lt;/u&gt;" style="ellipse;whiteSpace=wrap;html=1;fontSize=14;" parent="1" vertex="1">
          <mxGeometry x="303.62" y="690" width="61.13" height="25" as="geometry" />
        </mxCell>
        <mxCell id="iGXHqbTBTP0j_DjDAk4k-9" value="stf_username" style="ellipse;whiteSpace=wrap;html=1;fontSize=14;" parent="1" vertex="1">
          <mxGeometry x="350" y="715" width="94.75" height="35" as="geometry" />
        </mxCell>
        <mxCell id="iGXHqbTBTP0j_DjDAk4k-10" value="stf_password" style="ellipse;whiteSpace=wrap;html=1;fontSize=14;" parent="1" vertex="1">
          <mxGeometry x="420" y="690" width="98.75" height="30" as="geometry" />
        </mxCell>
        <mxCell id="iGXHqbTBTP0j_DjDAk4k-11" style="rounded=0;orthogonalLoop=1;jettySize=auto;html=1;exitX=0.458;exitY=1.011;exitDx=0;exitDy=0;entryX=0.25;entryY=0;entryDx=0;entryDy=0;endArrow=none;endFill=0;exitPerimeter=0;fontSize=14;" parent="1" source="Nj9PsK4lVdZLPK7vL6xS-93" edge="1">
          <mxGeometry relative="1" as="geometry">
            <mxPoint x="392.88" y="670" as="sourcePoint" />
            <mxPoint x="404.88" y="715" as="targetPoint" />
          </mxGeometry>
        </mxCell>
        <mxCell id="iGXHqbTBTP0j_DjDAk4k-12" style="rounded=0;orthogonalLoop=1;jettySize=auto;html=1;exitX=0.75;exitY=1;exitDx=0;exitDy=0;entryX=0.5;entryY=0;entryDx=0;entryDy=0;endArrow=none;endFill=0;fontSize=14;" parent="1" source="Nj9PsK4lVdZLPK7vL6xS-93" target="iGXHqbTBTP0j_DjDAk4k-10" edge="1">
          <mxGeometry relative="1" as="geometry">
            <mxPoint x="411" y="675" as="sourcePoint" />
            <mxPoint x="414.88" y="725" as="targetPoint" />
          </mxGeometry>
        </mxCell>
        <mxCell id="iGXHqbTBTP0j_DjDAk4k-13" style="rounded=0;orthogonalLoop=1;jettySize=auto;html=1;exitX=0.25;exitY=1;exitDx=0;exitDy=0;entryX=0.5;entryY=0;entryDx=0;entryDy=0;endArrow=none;endFill=0;fontSize=14;" parent="1" source="Nj9PsK4lVdZLPK7vL6xS-93" target="iGXHqbTBTP0j_DjDAk4k-8" edge="1">
          <mxGeometry relative="1" as="geometry">
            <mxPoint x="421" y="685" as="sourcePoint" />
            <mxPoint x="424.88" y="735" as="targetPoint" />
          </mxGeometry>
        </mxCell>
        <mxCell id="iGXHqbTBTP0j_DjDAk4k-14" value="&lt;font&gt;pat_addr&lt;/font&gt;" style="ellipse;whiteSpace=wrap;html=1;fontSize=14;" parent="1" vertex="1">
          <mxGeometry x="25.12" y="670" width="79.38" height="35" as="geometry" />
        </mxCell>
        <mxCell id="iGXHqbTBTP0j_DjDAk4k-16" style="rounded=0;orthogonalLoop=1;jettySize=auto;html=1;exitX=0.5;exitY=1;exitDx=0;exitDy=0;entryX=0.25;entryY=0;entryDx=0;entryDy=0;endArrow=none;endFill=0;fontSize=14;" parent="1" source="iGXHqbTBTP0j_DjDAk4k-14" target="Nj9PsK4lVdZLPK7vL6xS-3" edge="1">
          <mxGeometry relative="1" as="geometry">
            <mxPoint x="223" y="716" as="sourcePoint" />
            <mxPoint x="183" y="735" as="targetPoint" />
          </mxGeometry>
        </mxCell>
        <mxCell id="ZuFcQbM1JLO3lGgZbDGv-1" value="M" style="text;html=1;align=center;verticalAlign=middle;whiteSpace=wrap;rounded=0;fontSize=14;" vertex="1" parent="1">
          <mxGeometry x="405.96000000000004" y="475" width="20" height="20" as="geometry" />
        </mxCell>
        <mxCell id="ZuFcQbM1JLO3lGgZbDGv-2" value="N" style="text;html=1;align=center;verticalAlign=middle;whiteSpace=wrap;rounded=0;fontSize=14;" vertex="1" parent="1">
          <mxGeometry x="404.88" y="555" width="20" height="20" as="geometry" />
        </mxCell>
      </root>
    </mxGraphModel>
  </diagram>
</mxfile>
